<svg xmlns="http://www.w3.org/2000/svg" xmlns:xlink="http://www.w3.org/1999/xlink" fill="none" version="1.1" width="44" height="44" viewBox="0 0 44 44"><defs><clipPath id="master_svg0_282_06456"><rect x="5" y="5" width="34" height="34" rx="0"/></clipPath></defs><g><ellipse cx="22" cy="22" rx="22" ry="22" fill="#999999" fill-opacity="1"/><g clip-path="url(#master_svg0_282_06456)"><path d="M22,36.875C13.7847495,36.875,7.125,30.217375,7.125,22C7.125,13.7826257,13.7847495,7.125,22,7.125C30.217375,7.125,36.875,13.7826247,36.875,22C36.875,30.217375,30.217375,36.875,22,36.875ZM22,9.6112499L22,9.6027501C14.8918748,9.604874800000001,9.6112499,15.1702499,9.6112499,22C9.6112499,28.82975,15.1702499,34.38875,22,34.38875C28.82975,34.38875,34.38875,28.831875,34.38875,22C34.38875,15.1681252,28.831875,9.6112499,22,9.6112499ZM19.807000000000002,28.032875C19.509052,28.248859,19.109087000000002,28.259829,18.799749,28.060501C18.472388000000002,27.836454,18.279875,27.462608,18.287624,27.066L18.287624,15.6908751C18.287624,15.2786255,18.483125,14.8982501,18.799749,14.6963754C19.110011999999998,14.4966989,19.51116,14.5085216,19.809124,14.7261252L27.741749,20.414749999999998C28.028624,20.622999,28.205,20.988501,28.205,21.3795C28.205,21.770501,28.028624,22.136001,27.739624,22.342126L19.807000000000002,28.032875Z" fill="#FFFFFF" fill-opacity="1" style="mix-blend-mode:passthrough"/></g></g></svg>