<svg xmlns="http://www.w3.org/2000/svg" xmlns:xlink="http://www.w3.org/1999/xlink" fill="none" version="1.1" width="52" height="52" viewBox="0 0 52 52"><defs><clipPath id="master_svg0_277_06868"><rect x="0" y="0" width="52" height="52" rx="0"/></clipPath></defs><g clip-path="url(#master_svg0_277_06868)"><path d="M26.773421875,3.212890625C13.815964875,3.212890625,3.216796875,13.824488625,3.216796875,26.797141625C3.216796875,39.769794625,13.815964875,50.381393625,26.773421875,50.381393625C39.730876875,50.381393625,50.330047875,39.769794625,50.330047875,26.797141625C50.330047875,13.824488625,39.730876875,3.212890625,26.773421875,3.212890625ZM38.029132875,34.921483625C38.816978875,35.710254625,38.816978875,37.151077625,38.029132875,37.934589625C37.635207875,38.328971625,37.115226875,38.591895625,36.458690875,38.591895625C35.933456875,38.591895625,35.282172875,38.328971625,34.888246875,37.934589625C34.888246875,37.934589625,27.298654875,30.336097625,27.298654875,30.336097625C27.298654875,30.336097625,19.709060875,37.934589625,19.709060875,37.934589625C18.921214875,38.723358625,17.482079875,38.723358625,16.699485875,37.934589625C15.916891875,37.145820625,15.911637875,35.704997625,16.699485875,34.921483625C16.699485875,34.921483625,24.289079875,27.322988625,24.289079875,27.322988625C24.289079875,27.322988625,16.699485875,19.724494625,16.699485875,19.724494625C16.305562875,19.330112625,16.042946875,18.809521625000002,16.042946875,18.152212625C16.042946875,17.626365625,16.305562875,16.974314624999998,16.699485875,16.579929625C17.487331875000002,15.791156625,18.926466875,15.791156625,19.709060875,16.579929625C19.709060875,16.579929625,27.298654875,24.178422625,27.298654875,24.178422625C27.298654875,24.178422625,34.888246875,16.579929625,34.888246875,16.579929625C35.282172875,16.185544625,35.802150875,15.922621625,36.458690875,15.922621625C36.983920875,15.922621625,37.635207875,16.185544625,38.029132875,16.579929625C38.423053875,16.974314624999998,38.685668875,17.494902625,38.685668875,18.152212625C38.685668875,18.678059625,38.423053875,19.330112625,38.029132875,19.724494625C38.029132875,19.724494625,30.439540875,27.322988625,30.439540875,27.322988625C30.439540875,27.322988625,38.029132875,34.921483625,38.029132875,34.921483625Z" fill="#FF0105" fill-opacity="1"/></g></svg>