<svg xmlns="http://www.w3.org/2000/svg" xmlns:xlink="http://www.w3.org/1999/xlink" fill="none" version="1.1" width="44" height="44" viewBox="0 0 44 44"><defs><linearGradient x1="0.057350851595401764" y1="0" x2="1.601429343223572" y2="1.4921874999999996" id="master_svg0_201_11329"><stop offset="0%" stop-color="#1677FF" stop-opacity="1"/><stop offset="100%" stop-color="#1677FF" stop-opacity="0"/></linearGradient><clipPath id="master_svg1_282_06476"><rect x="5" y="5" width="34" height="34" rx="0"/></clipPath></defs><g><g><ellipse cx="22" cy="22" rx="22" ry="22" fill="url(#master_svg0_201_11329)" fill-opacity="1"/></g><g clip-path="url(#master_svg1_282_06476)"><path d="M10.3749375,16.61803819375L20.2916045,21.93053609375L20.759103500000002,22.18128909375L20.759103500000002,35.19478809375L19.4430205,34.46378709375L9.880520109999999,29.15128709375L9.44135329,28.90761909375L9.42576987,28.40612209375L9.071603104,17.42695429375L9.0234375,15.89412119375L10.3749373,16.61945529375L10.3749375,16.61803819375ZM34.9257695,17.42695429375L34.571603499999995,28.40612209375L34.5546035,28.90761909375L34.115438499999996,29.15128709375L24.5529395,34.46378709375L23.2382735,35.196205093749995L23.2382735,22.18128909375L23.7057735,21.93053609375L33.6224385,16.61803819375L34.973937500000005,15.89270349375L34.9257695,17.42695429375ZM11.1796041,27.84795409375L18.9882717,32.184370093750005L18.9882717,23.23953509375L10.8906045,18.90170509375L11.1796041,27.84795409375ZM25.009103500000002,23.23953509375L25.009103500000002,32.184370093750005L32.814935500000004,27.84795409375L33.1053505,18.90170409375L25.009103500000002,23.23953509375ZM22.3500215,8.44103799375L34.7175175,13.80028819375L33.018936499999995,14.64887099375L22.3939375,19.96137009375L21.998687500000003,20.15970309375L21.6020215,19.96137009375L10.9770209,14.64887099375L9.2784375,13.79887059375L21.6473535,8.44103767375L21.9986855,8.28662109375L22.3500215,8.44103799375ZM13.4661045,13.913620993750001L21.998687500000003,18.180620193750002L30.5298555,13.913620993750001L22.0001035,10.21612139375L13.4675212,13.913620993750001L13.4661045,13.913620993750001Z" fill="#FFFFFF" fill-opacity="1" style="mix-blend-mode:passthrough"/></g></g></svg>