<svg xmlns="http://www.w3.org/2000/svg" xmlns:xlink="http://www.w3.org/1999/xlink" fill="none" version="1.1" width="44" height="44" viewBox="0 0 44 44"><defs><clipPath id="master_svg0_282_06463"><rect x="5" y="5" width="34" height="34" rx="0"/></clipPath><clipPath id="master_svg1_282_06464"><rect x="7" y="7" width="30" height="30" rx="0"/></clipPath></defs><g><ellipse cx="22" cy="22" rx="22" ry="22" fill="#999999" fill-opacity="1"/><g clip-path="url(#master_svg0_282_06463)"><g clip-path="url(#master_svg1_282_06464)"><path d="M24.260366,27.596437C24.146675,27.484356,23.964045,27.484356,23.850355,27.596437L19.61426,31.832531C17.652214999999998,33.792576,14.3421416,34.002583,12.1760931,31.832531C10.0060441,29.662485,10.2160492,26.356413,12.1760931,24.394367L16.4121895,20.160273C16.525591900000002,20.046346,16.525591900000002,19.862189,16.4121895,19.748263L14.962156799999999,18.29623C14.8482304,18.182827,14.664073,18.182827,14.5501471,18.29623L10.3140523,22.532325C7.22975278,25.611553,7.22975278,30.60935,10.3140523,33.688578C13.393738299999999,36.771767,18.390615,36.771767,21.470303,33.688578L25.706398,29.452482C25.819799,29.338554,25.819799,29.1544,25.706398,29.040472L24.262365,27.596441L24.260366,27.596437ZM33.690578,10.3140521C30.611811,7.22864431,25.613094,7.22864431,22.534326999999998,10.3140521L18.294232,14.5501471C18.180827999999998,14.664072,18.180827999999998,14.8482304,18.294232,14.962156799999999L19.742265,16.4101887C19.854267999999998,16.522192,20.040272,16.522192,20.152275,16.4101887L24.390369,12.172094300000001C26.350414,10.21205,29.662489,10.0040455,31.826538,12.172094300000001C33.996588,14.342142599999999,33.788582000000005,17.6502161,31.826538,19.612261L27.590443,23.846353999999998C27.477039,23.960281000000002,27.477039,24.144436,27.590443,24.258364L29.042475,25.708397C29.154476,25.822397,29.34248,25.822397,29.454483,25.708397L33.690578,21.472301C36.770911999999996,18.389868999999997,36.770911999999996,13.394484,33.690578,10.3120511L33.690578,10.3140521ZM25.578396,16.9101992C25.46447,16.796795799999998,25.280312,16.796795799999998,25.166386,16.9101992L16.9082003,25.164383C16.7947969,25.278309,16.7947969,25.462467,16.9082003,25.576393L18.352233,27.020428C18.466234999999998,27.132429,18.652239,27.132429,18.764241,27.020428L27.018429,18.764241C27.131832,18.650314,27.131832,18.466158999999998,27.018429,18.352233L25.578396,16.9101992Z" fill="#FFFFFF" fill-opacity="1" style="mix-blend-mode:passthrough"/></g></g></g></svg>