<svg xmlns="http://www.w3.org/2000/svg" xmlns:xlink="http://www.w3.org/1999/xlink" fill="none" version="1.1" width="19.404878616333008" height="18.168041229248047" viewBox="0 0 19.404878616333008 18.168041229248047"><path d="M2.2240791,0.089602061L19.056082,16.921635L17.808079,18.168041L16.032078,16.39204C15.420072,16.630527,14.76891,16.752621,14.112079,16.752039L5.2960787,16.752039C2.7159193,16.754959,0.51010871,14.895932,0.075927742,12.352564C-0.35825384,9.8091984,1.1058905,7.323669,3.5408916,6.4704447C3.5053377,5.7042055,3.6105344,4.9379396,3.8512659,4.2096314L0.97767222,1.3360378L2.2256722,0.088037722L2.2240791,0.089602061ZM5.2960787,6.1711969C5.2960787,6.2431965,5.2992663,6.315197,5.302485,6.3856034L5.3648911,7.6976032L4.1264534,8.132822C2.5070817,8.7051296,1.5351539,10.360447,1.824446,12.053436C2.1137373,13.746427,3.5801766,14.985084,5.2977037,14.987196L14.113672,14.987196C14.27689,14.987196,14.438485,14.97601,14.59689,14.955197L5.3232665,5.6831965C5.3072662,5.8431964,5.2976732,6.0064154,5.2976732,6.1711969L5.2960787,6.1711969ZM9.7056723,0.0000085449228C13.231142,0.00041503907,16.039829,2.949095,15.868894,6.4704151C18.987797,7.5694485,20.346357,11.227579,18.700891,14.09601L17.385674,12.779197C17.917725,11.466749,17.612623,9.963315,16.611048,8.9620943C15.609473,7.960875,14.105933,7.6563072,12.793673,8.1888218L11.478484,6.8736029C12.279925,6.4120402,13.188824,6.169775,14.113672,6.1711969C14.114016,4.5256081,13.197706,3.0168478,11.737325,2.2583938C10.276946,1.4999398,8.5156898,1.6180971,7.1697049,2.564821L5.9089227,1.305602C6.9925976,0.45749575,8.3296146,-0.0022625735,9.7056723,0.0000085449228Z" fill="#EE5433" fill-opacity="1" style="mix-blend-mode:passthrough"/></svg>