<svg xmlns="http://www.w3.org/2000/svg" xmlns:xlink="http://www.w3.org/1999/xlink" fill="none" version="1.1" width="52" height="52" viewBox="0 0 52 52"><defs><mask id="master_svg0_277_05776" style="mask-type:luminance" maskUnits="userSpaceOnUse" x="0" y="0" width="52" height="52"><path d="M52,0L0,0L0,52L52,52L52,0Z" fill="#FFFFFF" fill-opacity="1" style="mix-blend-mode:passthrough"/></mask></defs><g mask="url(#master_svg0_277_05776)"><path d="M40.77364541673279,19.466248903778077L21.738397416732788,38.50133490377807L11.21996621673279,27.989695903778077C10.086675416732788,26.856259903778078,10.086675416732788,25.146271903778075,11.21996621673279,24.012997903778075C12.360033716732788,22.872897903778075,14.063375416732788,22.872897903778075,15.203426416732787,24.012997903778075L21.738397416732788,30.547934903778078L36.79694541673279,15.489564903778076C37.93704341673279,14.349496903778077,39.64037141673279,14.349496903778077,40.77364541673279,15.489564903778076C41.91374741673279,16.622822903778076,41.91374741673279,18.326149903778074,40.77364541673279,19.466248903778077ZM26.00028441673279,3.267695903778076C13.500134416732788,3.267695903778076,3.266599416732788,13.501231903778077,3.266599416732788,26.001345903778077C3.266599416732788,38.50133490377807,13.500134416732788,48.734934903778075,26.00028441673279,48.734934903778075C38.50027241673279,48.734934903778075,48.73387341673279,38.50133490377807,48.73387341673279,26.001345903778077C48.73387341673279,13.501231903778077,38.50027241673279,3.267695903778076,26.00028441673279,3.267695903778076Z" fill="#00E841" fill-opacity="1" style="mix-blend-mode:passthrough"/></g></svg>